<?xml version="1.0" encoding="UTF-8" standalone="no"?>
<!-- Created with Inkscape (http://www.inkscape.org/) -->

<svg
   width="44.060631mm"
   height="50.801006mm"
   viewBox="0 0 44.060631 50.801006"
   version="1.1"
   id="svg5"
   inkscape:version="1.1.2 (b8e25be8, 2022-02-05)"
   sodipodi:docname="esLibre22-EESJ-0302-pegatinas eslibre.svg"
   xmlns:inkscape="http://www.inkscape.org/namespaces/inkscape"
   xmlns:sodipodi="http://sodipodi.sourceforge.net/DTD/sodipodi-0.dtd"
   xmlns="http://www.w3.org/2000/svg"
   xmlns:svg="http://www.w3.org/2000/svg">
  <sodipodi:namedview
     id="namedview7"
     pagecolor="#ffffff"
     bordercolor="#666666"
     borderopacity="1.0"
     inkscape:pageshadow="2"
     inkscape:pageopacity="0.0"
     inkscape:pagecheckerboard="0"
     inkscape:document-units="mm"
     showgrid="false"
     showguides="false"
     inkscape:guide-bbox="true"
     inkscape:zoom="2.5837261"
     inkscape:cx="155.39573"
     inkscape:cy="88.244648"
     inkscape:window-width="1512"
     inkscape:window-height="916"
     inkscape:window-x="0"
     inkscape:window-y="38"
     inkscape:window-maximized="0"
     inkscape:current-layer="text26129-6"
     fit-margin-top="0"
     fit-margin-left="0"
     fit-margin-right="0"
     fit-margin-bottom="0">
    <sodipodi:guide
       position="-82.912931,154.31014"
       orientation="0,793.70079"
       id="guide9" />
    <sodipodi:guide
       position="127.08706,154.31014"
       orientation="1122.5197,0"
       id="guide11" />
    <sodipodi:guide
       position="127.08706,-142.68985"
       orientation="0,-793.70079"
       id="guide13" />
    <sodipodi:guide
       position="-82.912931,-142.68985"
       orientation="-1122.5197,0"
       id="guide15" />
    <sodipodi:guide
       position="107.08706,124.31014"
       orientation="0,-1"
       id="guide17" />
    <sodipodi:guide
       position="-62.912931,-112.68985"
       orientation="0,-1"
       id="guide19" />
    <sodipodi:guide
       position="-62.912931,-112.68985"
       orientation="1,0"
       id="guide21" />
    <sodipodi:guide
       position="107.08706,-112.68985"
       orientation="1,0"
       id="guide23" />
    <sodipodi:guide
       position="67.087064,40.810148"
       orientation="0,-1"
       id="guide492" />
    <sodipodi:guide
       position="-22.912933,-29.189851"
       orientation="1,0"
       id="guide494" />
    <sodipodi:guide
       position="67.087064,40.810148"
       orientation="1,0"
       id="guide496" />
    <sodipodi:guide
       position="-22.912933,-29.189851"
       orientation="0,-1"
       id="guide498" />
    <sodipodi:guide
       position="-22.912933,65.810147"
       orientation="0,-1"
       id="guide529" />
    <sodipodi:guide
       position="-22.912933,-54.18985"
       orientation="0,-1"
       id="guide531" />
  </sodipodi:namedview>
  <defs
     id="defs2">
    <style
       type="text/css"
       id="style6"><![CDATA[
    .fil1 {fill:#007B37}
    .fil0 {fill:#09412E}
   ]]></style>
  </defs>
  <g
     inkscape:groupmode="layer"
     id="layer3"
     inkscape:label="Grella"
     transform="translate(-82.91294,-103.50915)">
    <g
       inkscape:groupmode="layer"
       id="layer4"
       inkscape:label="Grella" />
  </g>
  <g
     inkscape:groupmode="layer"
     id="layer2"
     inkscape:label="Referencia"
     style="display:inline"
     transform="translate(-82.91294,-103.50915)">
    <path
       sodipodi:type="star"
       style="font-variation-settings:normal;opacity:1;vector-effect:none;fill:#e4143e;fill-opacity:1;stroke:none;stroke-width:1;stroke-linecap:butt;stroke-linejoin:miter;stroke-miterlimit:4;stroke-dasharray:none;stroke-dashoffset:0;stroke-opacity:1;-inkscape-stroke:none;stop-color:#000000;stop-opacity:1"
       id="path1023"
       inkscape:flatsided="true"
       sodipodi:sides="6"
       sodipodi:cx="302.2565"
       sodipodi:cy="364.13669"
       sodipodi:r1="36.625835"
       sodipodi:r2="31.718904"
       sodipodi:arg1="2.0875852"
       sodipodi:arg2="2.611184"
       inkscape:rounded="0"
       inkscape:randomized="0"
       d="m 284.16001,395.97956 -18.5285,-31.59346 18.0965,-31.84287 36.62498,-0.24942 18.5285,31.59346 -18.0965,31.84288 z"
       transform="matrix(0.59913185,0.34929205,-0.34929205,0.59913185,51.041809,-194.83203)"
       inkscape:transform-center-x="-7.7916369e-06"
       inkscape:transform-center-y="-1.0066757e-05" />
    <g
       aria-label="esLibre"
       id="text26129-6"
       style="font-weight:bold;font-size:10.5833px;line-height:1.25;font-family:Helvetica;-inkscape-font-specification:'Helvetica, Bold';display:inline;stroke-width:0.264583"
       transform="matrix(0.59417171,0,0,0.59417171,166.98387,30.797161)">
      <g
         id="g356"
         transform="translate(1.53554)"
         style="fill:#3c3c3c;fill-opacity:1">
        <path
           d="m -132.93459,147.57942 q -0.0568,0.50126 -0.52193,1.01802 -0.72347,0.82165 -2.02571,0.82165 -1.07487,0 -1.89652,-0.69246 -0.82166,-0.69246 -0.82166,-2.25308 0,-1.46244 0.73897,-2.24275 0.74414,-0.78031 1.92753,-0.78031 0.7028,0 1.26607,0.26354 0.56327,0.26355 0.93017,0.83199 0.33073,0.50126 0.42891,1.16272 0.0568,0.38757 0.0465,1.11621 h -3.85505 q 0.031,0.84749 0.53227,1.18855 0.30489,0.21187 0.7338,0.21187 0.45475,0 0.73897,-0.25838 0.15503,-0.13952 0.27389,-0.38757 z m -1.45727,-1.72599 q -0.0362,-0.58394 -0.35657,-0.88366 -0.31523,-0.30489 -0.78548,-0.30489 -0.5116,0 -0.79581,0.32039 -0.27906,0.32039 -0.3514,0.86816 z"
           id="path31062-5"
           style="fill:#3c3c3c;fill-opacity:1" />
        <path
           d="m -127.98401,143.85873 q 0.66146,0.42374 0.75964,1.45727 h -1.47277 q -0.031,-0.28422 -0.1602,-0.44958 -0.24287,-0.29973 -0.82682,-0.29973 -0.48059,0 -0.68729,0.14986 -0.20154,0.14987 -0.20154,0.3514 0,0.25322 0.21704,0.3669 0.21704,0.11886 1.53479,0.40825 0.87849,0.2067 1.31774,0.62528 0.43408,0.42375 0.43408,1.05936 0,0.83716 -0.62528,1.36942 -0.62012,0.5271 -1.92236,0.5271 -1.32808,0 -1.9637,-0.5581 -0.63045,-0.56327 -0.63045,-1.43143 h 1.49345 q 0.0465,0.39274 0.20154,0.5581 0.27388,0.29455 1.01285,0.29455 0.43408,0 0.68729,-0.12919 0.25839,-0.12919 0.25839,-0.38757 0,-0.24804 -0.20671,-0.37723 -0.2067,-0.1292 -1.53478,-0.44442 -0.95602,-0.23771 -1.34875,-0.59428 -0.39274,-0.3514 -0.39274,-1.01285 0,-0.78031 0.60978,-1.33842 0.61494,-0.56327 1.72598,-0.56327 1.0542,0 1.72082,0.41858 z"
           id="path31064-7"
           style="fill:#3c3c3c;fill-opacity:1" />
      </g>
      <path
         d="m -136.66487,150.4357 h 1.59163 v 6.24766 h 3.77237 v 1.36942 h -5.364 z"
         id="path31066-6"
         style="fill:#ffffff;stroke:none" />
      <path
         d="m -128.79974,152.42007 v 5.63271 h -1.49344 v -5.63271 z m 0,-2.03088 v 1.35909 h -1.49344 v -1.35909 z"
         id="path31068-2"
         style="fill:#ffffff;stroke:none" />
      <path
         d="m -124.31941,158.20264 q -0.69763,0 -1.12137,-0.27905 -0.25321,-0.16536 -0.54777,-0.57877 v 0.70796 h -1.44177 v -7.60675 h 1.46761 v 2.70784 q 0.27905,-0.39274 0.61495,-0.59944 0.3979,-0.25839 1.01285,-0.25839 1.11104,0 1.73632,0.80099 0.63045,0.80098 0.63045,2.06705 0,1.31257 -0.62011,2.17557 -0.62012,0.86299 -1.73116,0.86299 z m 0.80615,-2.88353 q 0,-0.59945 -0.15502,-0.99219 -0.29456,-0.74414 -1.08521,-0.74414 -0.80098,0 -1.1007,0.72864 -0.15503,0.38757 -0.15503,1.00252 0,0.72347 0.32039,1.19889 0.3204,0.47542 0.97668,0.47542 0.56844,0 0.88367,-0.45992 0.31522,-0.45992 0.31522,-1.20922 z"
         id="path31070-7"
         style="fill:#ffffff;stroke:none" />
      <path
         d="m -118.07691,153.77915 q -0.88883,0 -1.19372,0.57878 -0.17054,0.32556 -0.17054,1.00252 v 2.69233 h -1.4831 v -5.63271 h 1.40559 v 0.98185 q 0.34106,-0.56328 0.59428,-0.76998 0.41341,-0.34623 1.07486,-0.34623 0.0413,0 0.0672,0.005 0.031,0 0.12919,0.005 v 1.50895 q -0.13952,-0.0155 -0.24804,-0.0207 -0.10852,-0.005 -0.1757,-0.005 z"
         id="path31072-0"
         style="fill:#ffffff;stroke:none" />
      <path
         d="m -111.97395,156.39914 q -0.0568,0.50126 -0.52193,1.01802 -0.72346,0.82165 -2.02571,0.82165 -1.07486,0 -1.89651,-0.69246 -0.82166,-0.69246 -0.82166,-2.25308 0,-1.46244 0.73897,-2.24275 0.74414,-0.78031 1.92753,-0.78031 0.7028,0 1.26607,0.26354 0.56327,0.26355 0.93017,0.83199 0.33073,0.50126 0.42891,1.16272 0.0568,0.38757 0.0465,1.11621 h -3.85505 q 0.031,0.84749 0.53227,1.18855 0.30489,0.21187 0.7338,0.21187 0.45475,0 0.73897,-0.25838 0.15503,-0.13952 0.27389,-0.38757 z m -1.45727,-1.72599 q -0.0362,-0.58394 -0.35656,-0.88366 -0.31523,-0.30489 -0.78548,-0.30489 -0.5116,0 -0.79582,0.32039 -0.27905,0.32039 -0.35139,0.86816 z"
         id="path31074-3"
         style="fill:#ffffff;stroke:none" />
    </g>
  </g>
  <g
     inkscape:label="Artwork"
     inkscape:groupmode="layer"
     id="layer1"
     style="display:inline"
     transform="translate(-82.91294,-103.50915)">
    <g
       transform="matrix(2.151268,0,0,2.151268,-485.29532,-338.98727)"
       id="layer1-5"
       inkscape:label="Layer 1"
       style="display:inline;fill:#ffffff;fill-opacity:1;stroke-width:3.65424" />
    <symbol
       id="Bush_Left"
       viewBox="-43.3 -24.308 86.601 48.615"
       transform="matrix(0.39321469,0,0,0.39321469,-12.075034,171.48126)">
      <g
         id="g4969">
        <g
           id="g4727">
          <path
             fill="#00a651"
             d="m -33.888,-3.511 c 8.299,8.895 13.237,21.557 13.237,21.557 -3.489,-10.506 -7.56,-15.73 -14.272,-24.22 z"
             id="path4699" />
          <path
             fill="#00a651"
             d="m -30.487,3.161 c 0.297,2.265 2.376,11.441 2.376,11.441 l -2.153,-5.593 c -0.479,-2.881 0.761,-5.555 0.447,-7.952 z"
             id="path4701" />
          <path
             fill="#00a651"
             d="m -27.667,8.564 c 0.297,2.266 1.726,9.829 1.726,9.829 l -0.53,-3.791 c 0,-2.44 -0.211,-5.744 -0.526,-8.142 z"
             id="path4703" />
          <path
             fill="#00a651"
             d="m -24.188,13.377 c 0.216,1.381 3.051,6.613 3.051,6.613 l -2.181,-2.933 c 0,-1.487 -0.154,-3.501 -0.382,-4.963 z"
             id="path4705" />
          <path
             fill="#00a651"
             d="m -21.167,18.075 c 0.602,1.176 2.76,6.232 2.76,6.232 l -1.281,-3.51 c -0.313,-1.289 -0.958,-3.02 -1.595,-4.265 z"
             id="path4707" />
          <path
             fill="#00a651"
             d="m -26.043,10.332 c 0.297,2.266 1.726,9.828 1.726,9.828 l -1.161,-4.837 c 0,-2.441 0.42,-4.697 0.105,-7.095 z"
             id="path4709" />
          <path
             fill="#00a651"
             d="m -24.522,3.487 c 1.421,0.866 6.495,3.396 6.495,3.396 l -3.35,-2.196 C -23.151,3.523 -26.7,4.061 -28.204,3.144 Z"
             id="path4711" />
          <path
             fill="#00a651"
             d="m -21.855,6.884 c 1.898,1.261 6.128,5.077 6.128,5.077 l -3.163,-2.14 c -2.187,-1.069 -5.052,-2.709 -7.062,-4.043 z"
             id="path4713" />
          <path
             fill="#00a651"
             d="m -21.837,13.088 c 1.036,0.934 3.865,6.169 3.865,6.169 l -1.263,-3.432 c -1.244,-0.811 -2.842,-2.037 -3.939,-3.025 z"
             id="path4715" />
          <path
             fill="#00a651"
             d="m -23.271,9.473 c 1.577,1.009 5.962,5.851 5.962,5.851 l -2.632,-3.877 c -1.816,-0.856 -3.47,-1.16 -5.14,-2.229 z"
             id="path4717" />
          <path
             fill="#00a651"
             d="m -32.966,0.366 c 0.297,2.265 1.6,12.736 1.6,12.736 l -1.376,-6.888 c -0.479,-2.881 0.762,-5.555 0.447,-7.953 z"
             id="path4719" />
          <path
             fill="#00a651"
             d="m -34.966,-1.264 c 0.297,2.266 1.599,12.736 1.599,12.736 l -1.376,-6.887 c -0.479,-2.882 0.761,-5.556 0.447,-7.953 z"
             id="path4721" />
          <path
             fill="#00a651"
             d="m -29.402,-0.557 c 1.549,0.605 10.179,4.284 10.179,4.284 l -4.82,-3.121 c -1.949,-0.838 -5.362,-0.453 -7.002,-1.095 z"
             id="path4723" />
          <path
             fill="#00a651"
             d="m -29.97,-3.318 c 1.727,0.743 9.727,4.106 9.727,4.106 l -5.13,-2.746 c -2.171,-1.049 -4.612,-0.291 -6.44,-1.078 z"
             id="path4725" />
        </g>
        <g
           id="g4757">
          <path
             fill="#00a651"
             d="m -41.108,-9.821 c 17.332,-2.827 35.766,-10.603 35.766,-10.603 -13.469,6.661 -22.757,8.744 -37.958,12.079 z"
             id="path4729" />
          <path
             fill="#00a651"
             d="m -29.852,-13.562 c 2.399,-1.676 13.091,-8.003 13.091,-8.003 l -7.499,3.39 c -3.164,2.079 -4.231,4.895 -6.771,6.668 z"
             id="path4731" />
          <path
             fill="#00a651"
             d="m -21.787,-16.448 c 2.399,-1.676 10.895,-7.041 10.895,-7.041 l -4.051,2.787 c -2.23,1.975 -5.483,4.535 -8.022,6.309 z"
             id="path4733" />
          <path
             fill="#00a651"
             d="m -13.531,-18.509 c 1.501,-1.004 9.426,-3.744 9.426,-3.744 l -5.098,1.225 c -1.36,1.204 -3.371,2.751 -4.96,3.813 z"
             id="path4735" />
          <path
             fill="#00a651"
             d="m -5.888,-20.719 c 1.742,-0.635 8.756,-3.589 8.756,-3.589 l -4.628,2.165 c -1.525,0.878 -3.821,1.938 -5.666,2.609 z"
             id="path4737" />
          <path
             fill="#00a651"
             d="m -18.371,-17.022 c 2.399,-1.676 10.895,-7.041 10.895,-7.041 l -5.708,3.301 c -2.23,1.975 -3.826,4.021 -6.366,5.795 z"
             id="path4739" />
          <path
             fill="#00a651"
             d="m -22.937,-10.686 c 2.367,0.047 10.307,0.671 10.307,0.671 l -5.722,0.014 c -3.032,0.008 -6.476,-2.295 -8.982,-2.345 z"
             id="path4741" />
          <path
             fill="#00a651"
             d="m -16.876,-12.029 c 3.258,-0.021 11.436,-0.882 11.436,-0.882 l -5.462,0.066 c -3.403,-0.285 -8.078,-0.468 -11.526,-0.445 z"
             id="path4743" />
          <path
             fill="#00a651"
             d="m -11.188,-17.037 c 2.003,-0.21 9.925,-2.956 9.925,-2.956 l -4.537,2.111 c -2.12,0.001 -5.014,0.151 -7.134,0.374 z"
             id="path4745" />
          <path
             fill="#00a651"
             d="m -16.082,-14.868 c 2.671,0.014 11.958,-1.595 11.958,-1.595 l -6.461,1.751 c -2.797,-0.263 -4.908,-0.889 -7.736,-0.902 z"
             id="path4747" />
          <path
             fill="#00a651"
             d="m -35.155,-12.604 c 2.399,-1.677 13.411,-9.46 13.411,-9.46 l -7.819,4.846 c -3.163,2.079 -4.231,4.895 -6.771,6.668 z"
             id="path4749" />
          <path
             fill="#00a651"
             d="m -38.862,-12.34 c 2.399,-1.676 13.412,-9.459 13.412,-9.459 l -7.819,4.846 c -3.164,2.079 -4.231,4.894 -6.771,6.668 z"
             id="path4751" />
          <path
             fill="#00a651"
             d="m -32.045,-9.982 c 2.271,0.325 15.205,1.892 15.205,1.892 l -8.198,-0.013 c -2.927,-0.348 -6.361,-2.455 -8.766,-2.8 z"
             id="path4753" />
          <path
             fill="#00a651"
             d="m -35.199,-8.048 c 2.595,0.308 14.541,1.798 14.541,1.798 l -8.2,-0.479 c -3.366,-0.294 -5.381,-2.191 -8.127,-2.518 z"
             id="path4755" />
        </g>
        <g
           id="g4787">
          <path
             fill="#00a651"
             d="m -20.024,-4.793 c 13.512,-1.991 27.731,-7.055 27.731,-7.055 -10.5,4.69 -17.742,6.158 -29.593,8.506 z"
             id="path4759" />
          <path
             fill="#00a651"
             d="m -11.401,-7.015 c 1.871,-1.181 10.206,-5.637 10.206,-5.637 l -5.846,2.388 c -2.467,1.464 -3.3,3.447 -5.279,4.696 z"
             id="path4761" />
          <path
             fill="#00a651"
             d="m -5.113,-9.048 c 1.87,-1.18 8.494,-4.958 8.494,-4.958 l -3.158,1.963 c -1.739,1.39 -4.275,3.192 -6.255,4.442 z"
             id="path4763" />
          <path
             fill="#00a651"
             d="m 1.323,-10.499 c 1.17,-0.707 7.349,-2.637 7.349,-2.637 l -3.975,0.862 c -1.06,0.848 -2.627,1.938 -3.867,2.686 z"
             id="path4765" />
          <path
             fill="#00a651"
             d="m 7.281,-12.056 c 1.358,-0.447 6.827,-2.527 6.827,-2.527 l -3.608,1.524 c -1.189,0.618 -2.979,1.365 -4.417,1.838 z"
             id="path4767" />
          <path
             fill="#00a651"
             d="m -2.451,-9.452 c 1.871,-1.181 8.494,-4.959 8.494,-4.959 l -4.45,2.325 c -1.739,1.391 -2.982,2.831 -4.962,4.08 z"
             id="path4769" />
          <path
             fill="#00a651"
             d="m -6.011,-4.99 c 1.846,0.033 8.036,0.473 8.036,0.473 l -4.46,0.01 c -2.364,0.006 -5.049,-1.616 -7.002,-1.651 z"
             id="path4771" />
          <path
             fill="#00a651"
             d="m -1.285,-5.937 c 2.54,-0.015 8.916,-0.62 8.916,-0.62 l -4.259,0.046 c -2.653,-0.2 -6.298,-0.329 -8.986,-0.313 z"
             id="path4773" />
          <path
             fill="#00a651"
             d="m 3.15,-9.463 c 1.562,-0.148 7.737,-2.082 7.737,-2.082 l -3.537,1.487 c -1.653,10e-4 -3.909,0.106 -5.562,0.263 z"
             id="path4775" />
          <path
             fill="#00a651"
             d="m -0.666,-7.936 c 2.083,0.01 9.323,-1.123 9.323,-1.123 L 3.62,-7.825 C 1.439,-8.011 -0.207,-8.451 -2.411,-8.461 Z"
             id="path4777" />
          <path
             fill="#00a651"
             d="m -15.536,-6.342 c 1.871,-1.18 10.456,-6.661 10.456,-6.661 l -6.096,3.413 c -2.466,1.463 -3.299,3.445 -5.278,4.695 z"
             id="path4779" />
          <path
             fill="#00a651"
             d="m -18.426,-6.154 c 1.87,-1.181 10.456,-6.662 10.456,-6.662 l -6.096,3.413 c -2.466,1.464 -3.299,3.446 -5.279,4.695 z"
             id="path4781" />
          <path
             fill="#00a651"
             d="m -13.112,-4.495 c 1.771,0.229 11.854,1.332 11.854,1.332 L -7.65,-3.172 c -2.282,-0.245 -4.959,-1.729 -6.834,-1.972 z"
             id="path4783" />
          <path
             fill="#00a651"
             d="m -15.57,-3.133 c 2.022,0.217 11.336,1.267 11.336,1.267 l -6.393,-0.338 c -2.625,-0.207 -4.195,-1.543 -6.336,-1.772 z"
             id="path4785" />
        </g>
        <g
           id="g4817">
          <path
             fill="#00a651"
             d="m 1.652,-2.056 c 12.235,-1.712 25.111,-6.067 25.111,-6.067 -9.508,4.034 -16.065,5.297 -26.796,7.316 z"
             id="path4789" />
          <path
             fill="#00a651"
             d="m 9.46,-3.967 c 1.694,-1.015 9.241,-4.848 9.241,-4.848 l -5.293,2.054 c -2.233,1.259 -2.987,2.964 -4.78,4.039 z"
             id="path4791" />
          <path
             fill="#00a651"
             d="m 15.154,-5.715 c 1.694,-1.016 7.691,-4.266 7.691,-4.266 l -2.859,1.688 c -1.575,1.196 -3.871,2.747 -5.664,3.821 z"
             id="path4793" />
          <path
             fill="#00a651"
             d="m 20.982,-6.964 c 1.06,-0.607 6.654,-2.268 6.654,-2.268 l -3.598,0.742 c -0.96,0.729 -2.379,1.667 -3.501,2.311 z"
             id="path4795" />
          <path
             fill="#00a651"
             d="m 26.378,-8.303 c 1.23,-0.385 6.182,-2.174 6.182,-2.174 l -3.268,1.312 c -1.076,0.532 -2.697,1.174 -4,1.581 z"
             id="path4797" />
          <path
             fill="#00a651"
             d="m 17.565,-6.063 c 1.694,-1.015 7.691,-4.266 7.691,-4.266 l -4.029,2 c -1.575,1.196 -2.701,2.436 -4.494,3.511 z"
             id="path4799" />
          <path
             fill="#00a651"
             d="m 14.342,-2.225 c 1.671,0.028 7.276,0.406 7.276,0.406 l -4.039,0.009 c -2.141,0.005 -4.572,-1.39 -6.341,-1.42 z"
             id="path4801" />
          <path
             fill="#00a651"
             d="m 18.621,-3.038 c 2.3,-0.013 8.073,-0.534 8.073,-0.534 l -3.856,0.04 c -2.402,-0.173 -5.703,-0.283 -8.137,-0.271 z"
             id="path4803" />
          <path
             fill="#00a651"
             d="m 22.637,-6.072 c 1.414,-0.127 7.006,-1.791 7.006,-1.791 l -3.204,1.279 c -1.496,10e-4 -3.539,0.092 -5.036,0.227 z"
             id="path4805" />
          <path
             fill="#00a651"
             d="m 19.182,-4.758 c 1.886,0.008 8.442,-0.966 8.442,-0.966 l -4.562,1.06 C 21.087,-4.822 19.597,-5.202 17.601,-5.21 Z"
             id="path4807" />
          <path
             fill="#00a651"
             d="m 5.717,-3.387 c 1.694,-1.016 9.468,-5.73 9.468,-5.73 l -5.52,2.936 c -2.233,1.259 -2.987,2.964 -4.78,4.039 z"
             id="path4809" />
          <path
             fill="#00a651"
             d="m 3.1,-3.227 c 1.694,-1.015 9.468,-5.73 9.468,-5.73 l -5.52,2.936 c -2.233,1.26 -2.987,2.965 -4.78,4.04 z"
             id="path4811" />
          <path
             fill="#00a651"
             d="m 7.912,-1.799 c 1.604,0.197 10.733,1.146 10.733,1.146 L 12.858,-0.66 C 10.792,-0.871 8.368,-2.147 6.67,-2.356 Z"
             id="path4813" />
          <path
             fill="#00a651"
             d="M 5.686,-0.627 C 7.518,-0.44 15.951,0.462 15.951,0.462 L 10.162,0.172 C 7.786,-0.006 6.364,-1.155 4.425,-1.353 Z"
             id="path4815" />
        </g>
        <g
           id="g4847">
          <path
             fill="#00a651"
             d="M 14.001,2.836 C 25.08,1.363 36.739,-2.384 36.739,-2.384 28.13,1.087 22.192,2.173 12.475,3.91 Z"
             id="path4819" />
          <path
             fill="#00a651"
             d="m 21.072,1.192 c 1.534,-0.873 8.368,-4.171 8.368,-4.171 l -4.793,1.767 c -2.022,1.083 -2.705,2.551 -4.328,3.475 z"
             id="path4821" />
          <path
             fill="#00a651"
             d="m 26.228,-0.312 c 1.534,-0.874 6.964,-3.67 6.964,-3.67 l -2.589,1.452 c -1.426,1.029 -3.505,2.363 -5.128,3.288 z"
             id="path4823" />
          <path
             fill="#00a651"
             d="m 31.505,-1.386 c 0.96,-0.523 6.026,-1.951 6.026,-1.951 l -3.259,0.638 c -0.869,0.628 -2.154,1.434 -3.17,1.987 z"
             id="path4825" />
          <path
             fill="#00a651"
             d="m 36.391,-2.538 c 1.114,-0.331 5.598,-1.87 5.598,-1.87 l -2.959,1.129 c -0.975,0.457 -2.442,1.009 -3.622,1.359 z"
             id="path4827" />
          <path
             fill="#00a651"
             d="m 28.411,-0.611 c 1.534,-0.873 6.964,-3.669 6.964,-3.669 l -3.649,1.72 C 30.3,-1.531 29.28,-0.465 27.657,0.46 Z"
             id="path4829" />
          <path
             fill="#00a651"
             d="m 25.492,2.69 c 1.513,0.024 6.589,0.35 6.589,0.35 L 28.423,3.047 C 26.485,3.052 24.283,1.852 22.681,1.825 Z"
             id="path4831" />
          <path
             fill="#00a651"
             d="m 29.367,1.99 c 2.083,-0.011 7.31,-0.459 7.31,-0.459 L 33.185,1.565 C 31.01,1.417 28.021,1.322 25.817,1.333 Z"
             id="path4833" />
          <path
             fill="#00a651"
             d="m 33.003,-0.619 c 1.28,-0.109 6.344,-1.54 6.344,-1.54 l -2.9,1.1 c -1.355,10e-4 -3.205,0.079 -4.56,0.195 z"
             id="path4835" />
          <path
             fill="#00a651"
             d="m 29.875,0.511 c 1.708,0.008 7.645,-0.83 7.645,-0.83 L 33.39,0.593 C 31.602,0.456 30.252,0.13 28.445,0.122 Z"
             id="path4837" />
          <path
             fill="#00a651"
             d="m 17.682,1.69 c 1.534,-0.873 8.573,-4.93 8.573,-4.93 l -4.998,2.525 C 19.235,0.369 18.552,1.836 16.929,2.76 Z"
             id="path4839" />
          <path
             fill="#00a651"
             d="m 15.312,1.829 c 1.533,-0.874 8.573,-4.93 8.573,-4.93 l -4.999,2.525 c -2.022,1.083 -2.705,2.55 -4.328,3.475 z"
             id="path4841" />
          <path
             fill="#00a651"
             d="m 19.669,3.057 c 1.452,0.17 9.72,0.986 9.72,0.986 L 24.148,4.036 C 22.277,3.855 20.082,2.757 18.544,2.577 Z"
             id="path4843" />
          <path
             fill="#00a651"
             d="m 17.654,4.065 c 1.658,0.16 9.295,0.937 9.295,0.937 L 21.707,4.753 C 19.556,4.6 18.268,3.61 16.512,3.44 Z"
             id="path4845" />
        </g>
        <g
           id="g4877">
          <path
             fill="#00a651"
             d="M -16.823,0.146 C -9.209,6.411 -2.933,16.13 -2.933,16.13 -7.012,7.951 -10.858,4.172 -17.184,-1.957 Z"
             id="path4849" />
          <path
             fill="#00a651"
             d="m -12.52,5.146 c 0.525,1.819 3.334,9.083 3.334,9.083 L -11.588,9.912 C -12.335,7.609 -11.716,5.266 -12.272,3.34 Z"
             id="path4851" />
          <path
             fill="#00a651"
             d="m -9.624,9.226 c 0.525,1.82 2.619,7.842 2.619,7.842 L -7.909,14.027 C -8.226,12.026 -8.819,9.346 -9.375,7.42 Z"
             id="path4853" />
          <path
             fill="#00a651"
             d="m -6.292,12.74 c 0.347,1.105 3.232,5.044 3.232,5.044 l -2.078,-2.135 c -0.193,-1.22 -0.574,-2.851 -0.942,-4.021 z"
             id="path4855" />
          <path
             fill="#00a651"
             d="m -3.331,16.218 c 0.621,0.89 2.957,4.768 2.957,4.768 l -1.453,-2.719 c -0.411,-1.018 -1.138,-2.355 -1.795,-3.298 z"
             id="path4857" />
          <path
             fill="#00a651"
             d="m -8.131,10.474 c 0.525,1.819 2.619,7.841 2.619,7.841 l -1.532,-3.82 c -0.317,-2 -0.283,-3.9 -0.839,-5.827 z"
             id="path4859" />
          <path
             fill="#00a651"
             d="m -7.835,4.678 c 1.218,0.534 5.496,1.982 5.496,1.982 L -5.231,5.273 C -6.763,4.538 -9.455,5.416 -10.745,4.85 Z"
             id="path4861" />
          <path
             fill="#00a651"
             d="m -5.318,7.132 c 1.641,0.8 5.428,3.405 5.428,3.405 L -2.629,9.174 C -4.47,8.566 -6.913,7.576 -8.65,6.73 Z"
             id="path4863" />
          <path
             fill="#00a651"
             d="m -4.499,12.213 c 0.928,0.638 3.809,4.58 3.809,4.58 l -1.429,-2.657 c -1.073,-0.511 -2.477,-1.319 -3.458,-1.994 z"
             id="path4865" />
          <path
             fill="#00a651"
             d="m -6.085,9.428 c 1.358,0.633 5.4,4.06 5.4,4.06 L -3.236,10.635 C -4.76,10.156 -6.088,10.113 -7.526,9.443 Z"
             id="path4867" />
          <path
             fill="#00a651"
             d="m -14.812,3.16 c 0.525,1.82 2.898,10.24 2.898,10.24 l -1.965,-5.475 c -0.746,-2.302 -0.128,-4.646 -0.684,-6.572 z"
             id="path4869" />
          <path
             fill="#00a651"
             d="m -16.581,2.071 c 0.525,1.82 2.898,10.24 2.898,10.24 L -15.648,6.836 C -16.395,4.534 -15.776,2.19 -16.333,0.264 Z"
             id="path4871" />
          <path
             fill="#00a651"
             d="m -12.158,1.965 c 1.284,0.306 8.479,2.256 8.479,2.256 L -7.836,2.257 c -1.625,-0.445 -4.232,0.29 -5.592,-0.033 z"
             id="path4873" />
          <path
             fill="#00a651"
             d="m -12.959,-0.229 c 1.441,0.396 8.104,2.166 8.104,2.166 L -9.205,0.32 c -1.826,-0.593 -3.627,0.33 -5.152,-0.09 z"
             id="path4875" />
        </g>
        <g
           id="g4907">
          <path
             fill="#00a651"
             d="M -1.735,1.377 C 3.281,6.61 7.115,14.385 7.115,14.385 4.747,7.917 2.253,4.807 -1.853,-0.243 Z"
             id="path4879" />
          <path
             fill="#00a651"
             d="m 1.003,5.443 c 0.254,1.415 1.776,7.109 1.776,7.109 L 1.352,9.122 C 0.972,7.327 1.569,5.584 1.3,4.086 Z"
             id="path4881" />
          <path
             fill="#00a651"
             d="m 2.798,8.724 c 0.254,1.415 1.348,6.121 1.348,6.121 L 3.703,12.478 C 3.61,10.938 3.365,8.864 3.096,7.366 Z"
             id="path4883" />
          <path
             fill="#00a651"
             d="m 4.943,11.601 c 0.174,0.861 1.972,4.033 1.972,4.033 L 5.574,13.883 C 5.517,12.945 5.354,11.682 5.169,10.77 Z"
             id="path4885" />
          <path
             fill="#00a651"
             d="m 6.825,14.427 c 0.384,0.715 1.793,3.807 1.793,3.807 L 7.762,16.078 C 7.536,15.279 7.107,14.218 6.7,13.461 Z"
             id="path4887" />
          <path
             fill="#00a651"
             d="m 3.781,9.765 c 0.254,1.415 1.348,6.121 1.348,6.121 L 4.29,12.887 C 4.197,11.348 4.347,9.906 4.078,8.408 Z"
             id="path4889" />
          <path
             fill="#00a651"
             d="m 4.377,5.378 c 0.834,0.481 3.79,1.847 3.79,1.847 L 6.195,5.992 C 5.151,5.338 3.172,5.839 2.289,5.329 Z"
             id="path4891" />
          <path
             fill="#00a651"
             d="m 6.01,7.399 c 1.118,0.709 3.647,2.924 3.647,2.924 L 7.793,9.117 C 6.52,8.542 4.843,7.639 3.659,6.888 Z"
             id="path4893" />
          <path
             fill="#00a651"
             d="m 6.257,11.312 c 0.62,0.542 2.414,3.716 2.414,3.716 L 7.828,12.92 C 7.097,12.465 6.149,11.765 5.493,11.191 Z"
             id="path4895" />
          <path
             fill="#00a651"
             d="m 5.311,9.096 c 0.927,0.565 3.583,3.42 3.583,3.42 L 7.263,10.19 C 6.207,9.733 5.263,9.617 4.282,9.018 Z"
             id="path4897" />
          <path
             fill="#00a651"
             d="m -0.5,3.793 c 0.254,1.416 1.388,7.961 1.388,7.961 L -0.151,7.473 C -0.531,5.677 0.066,3.934 -0.203,2.436 Z"
             id="path4899" />
          <path
             fill="#00a651"
             d="m -1.69,2.856 c 0.254,1.415 1.388,7.961 1.388,7.961 L -1.341,6.535 C -1.721,4.74 -1.124,2.997 -1.393,1.499 Z"
             id="path4901" />
          <path
             fill="#00a651"
             d="m 1.472,3.049 c 0.896,0.312 5.9,2.239 5.9,2.239 L 4.537,3.539 C 3.407,3.099 1.498,3.497 0.549,3.167 Z"
             id="path4903" />
          <path
             fill="#00a651"
             d="M 1.047,1.333 C 2.048,1.724 6.685,3.48 6.685,3.48 L 3.689,1.981 C 2.425,1.419 1.079,2.007 0.019,1.594 Z"
             id="path4905" />
        </g>
        <g
           id="g4937">
          <path
             fill="#00a651"
             d="M 10.392,4.123 C 15.719,8.621 19.531,15.07 19.531,15.07 17.291,9.758 14.678,7.116 10.369,2.823 Z"
             id="path4909" />
          <path
             fill="#00a651"
             d="m 13.217,7.543 c 0.191,1.146 1.526,5.786 1.526,5.786 L 13.361,10.501 C 13.054,9.044 13.85,7.691 13.648,6.48 Z"
             id="path4911" />
          <path
             fill="#00a651"
             d="m 15.027,10.275 c 0.19,1.146 1.108,4.971 1.108,4.971 l -0.34,-1.917 c 0,-1.234 -0.136,-2.904 -0.338,-4.117 z"
             id="path4913" />
          <path
             fill="#00a651"
             d="m 17.261,12.709 c 0.139,0.698 1.958,3.345 1.958,3.345 L 17.82,14.571 c 0,-0.752 -0.099,-1.771 -0.246,-2.51 z"
             id="path4915" />
          <path
             fill="#00a651"
             d="m 19.2,15.085 c 0.386,0.595 1.772,3.151 1.772,3.151 L 20.15,16.462 C 19.949,15.81 19.535,14.936 19.126,14.306 Z"
             id="path4917" />
          <path
             fill="#00a651"
             d="m 16.07,11.17 c 0.19,1.145 1.108,4.97 1.108,4.97 l -0.746,-2.446 c 0,-1.234 0.27,-2.375 0.068,-3.588 z"
             id="path4919" />
          <path
             fill="#00a651"
             d="m 17.046,7.708 c 0.912,0.438 4.169,1.718 4.169,1.718 l -2.15,-1.11 C 17.926,7.727 15.648,8 14.683,7.536 Z"
             id="path4921" />
          <path
             fill="#00a651"
             d="m 18.758,9.426 c 1.219,0.638 3.934,2.567 3.934,2.567 l -2.03,-1.082 C 19.258,10.37 17.419,9.542 16.129,8.866 Z"
             id="path4923" />
          <path
             fill="#00a651"
             d="m 18.77,12.562 c 0.666,0.473 2.481,3.12 2.481,3.12 L 20.44,13.947 c -0.798,-0.41 -1.825,-1.03 -2.529,-1.53 z"
             id="path4925" />
          <path
             fill="#00a651"
             d="m 17.849,10.734 c 1.012,0.511 3.828,2.959 3.828,2.959 L 19.988,11.732 C 18.822,11.299 17.76,11.146 16.689,10.606 Z"
             id="path4927" />
          <path
             fill="#00a651"
             d="m 11.626,6.13 c 0.19,1.146 1.026,6.44 1.026,6.44 L 11.769,9.088 c -0.307,-1.457 0.489,-2.81 0.287,-4.021 z"
             id="path4929" />
          <path
             fill="#00a651"
             d="m 10.342,5.306 c 0.19,1.146 1.027,6.44 1.027,6.44 L 10.485,8.264 c -0.307,-1.457 0.489,-2.81 0.287,-4.021 z"
             id="path4931" />
          <path
             fill="#00a651"
             d="M 13.914,5.663 C 14.909,5.97 20.448,7.83 20.448,7.83 L 17.354,6.251 C 16.103,5.828 13.912,6.022 12.859,5.698 Z"
             id="path4933" />
          <path
             fill="#00a651"
             d="m 13.549,4.267 c 1.108,0.376 6.245,2.077 6.245,2.077 L 16.5,4.954 C 15.106,4.424 13.54,4.808 12.366,4.409 Z"
             id="path4935" />
        </g>
        <g
           id="g4967">
          <path
             fill="#00a651"
             d="m 22.362,7.215 c 9.256,2.037 17.473,6.526 17.473,6.526 C 34.255,9.674 29.5,8.267 21.691,6.004 Z"
             id="path4939" />
          <path
             fill="#00a651"
             d="m 27.781,9.267 c 0.817,0.997 4.87,4.805 4.87,4.805 L 29.429,11.985 C 28.304,10.743 28.689,9.147 27.824,8.092 Z"
             id="path4941" />
          <path
             fill="#00a651"
             d="m 31.521,11.089 c 0.817,0.997 3.916,4.211 3.916,4.211 L 34.042,13.64 C 33.433,12.482 32.429,10.97 31.564,9.914 Z"
             id="path4943" />
          <path
             fill="#00a651"
             d="m 35.671,12.457 c 0.528,0.599 4.237,2.336 4.237,2.336 L 37.327,13.976 C 36.955,13.269 36.323,12.354 35.764,11.72 Z"
             id="path4945" />
          <path
             fill="#00a651"
             d="m 39.405,13.892 c 0.804,0.4 3.896,2.231 3.896,2.231 l -1.962,-1.328 c -0.587,-0.529 -1.566,-1.181 -2.417,-1.604 z"
             id="path4947" />
          <path
             fill="#00a651"
             d="m 33.338,11.5 c 0.817,0.997 3.916,4.211 3.916,4.211 l -2.191,-1.99 c -0.609,-1.159 -0.816,-2.34 -1.681,-3.396 z"
             id="path4949" />
          <path
             fill="#00a651"
             d="m 32.921,7.851 c 1.421,0.037 6.354,-0.098 6.354,-0.098 L 35.887,7.593 C 34.092,7.507 31.218,8.697 29.713,8.657 Z"
             id="path4951" />
          <path
             fill="#00a651"
             d="m 36.029,8.761 c 1.925,0.099 6.463,0.797 6.463,0.797 L 39.277,9.375 C 37.156,9.442 34.318,9.419 32.28,9.314 Z"
             id="path4953" />
          <path
             fill="#00a651"
             d="m 37.593,11.701 c 1.112,0.17 4.817,1.91 4.817,1.91 l -1.928,-1.297 c -1.256,-0.057 -2.918,-0.218 -4.095,-0.398 z"
             id="path4955" />
          <path
             fill="#00a651"
             d="m 35.475,10.362 c 1.589,0.064 6.515,1.207 6.515,1.207 l -3.199,-1.146 c -1.753,0.071 -3.232,0.362 -4.914,0.295 z"
             id="path4957" />
          <path
             fill="#00a651"
             d="m 24.982,8.593 c 0.817,0.997 4.534,5.624 4.534,5.624 L 26.631,11.31 C 25.506,10.069 25.89,8.473 25.026,7.418 Z"
             id="path4959" />
          <path
             fill="#00a651"
             d="m 22.879,8.346 c 0.817,0.997 4.534,5.624 4.534,5.624 L 24.528,11.064 C 23.403,9.822 23.787,8.226 22.923,7.171 Z"
             id="path4961" />
          <path
             fill="#00a651"
             d="m 27.773,7.216 c 1.465,-0.12 9.7,-0.646 9.7,-0.646 L 32.607,6.357 c -1.861,0.115 -4.66,1.196 -6.21,1.324 z"
             id="path4963" />
          <path
             fill="#00a651"
             d="M 26.603,6.055 C 28.252,5.953 35.875,5.444 35.875,5.444 L 30.84,5.49 c -2.103,0.074 -3.983,1.076 -5.729,1.185 z"
             id="path4965" />
        </g>
      </g>
    </symbol>
    <g
       id="Background"
       transform="matrix(0.39321469,0,0,0.39321469,-12.075034,171.48126)" />
    <g
       id="Guides"
       transform="matrix(0.39321469,0,0,0.39321469,-12.075034,171.48126)" />
    <text
       xml:space="preserve"
       style="font-style:normal;font-weight:normal;font-size:10.5833px;line-height:1.25;font-family:sans-serif;fill:#000000;fill-opacity:1;stroke:none;stroke-width:0.264583"
       x="50.477184"
       y="140.99637"
       id="text35682"><tspan
         sodipodi:role="line"
         id="tspan35680"
         style="stroke-width:0.264583"
         x="50.477184"
         y="140.99637" /></text>
    <g
       id="g999"
       transform="matrix(0.187945,0,0,0.187945,71.207044,102.6198)">
      <g
         id="g904"
         transform="matrix(0.57674001,0,0,0.57674001,85.085839,19.008372)">
        <path
           style="fill:#3c3c3c;stroke:none;fill-opacity:1"
           d="m 86,271 c 12.6907,-1.595 21.358,5.17 29.985,14 15.561,15.927 29.712,39.634 33.015,62 26.301,5.101 52.516,7.397 79,1.789 6.679,-1.414 19.375,-2.688 24.397,-7.632 4.006,-3.946 0.548,-20.29 0.464,-25.872 -0.207,-13.706 -1.341,-42.749 11.182,-51.721 6.518,-4.67 18.322,-3.6 25.957,-3.563 7.36,0.035 14.051,1.739 21,3.999 13.856,-36.934 -8.312,-83.496 -31.004,-112 -9.781,-12.286 -24.563,-24.28 -32.008,-38 C 232.975,86.3292 250.064,51.3102 220,29.7886 c -4.829,-3.4571 -10.283,-5.2901 -16,-6.6582 -6.288,-1.5049 -13.584,-1.7548 -20,-0.8303 -6.24,0.8991 -12.628,3.3634 -18,6.6266 -30.63,18.6062 -20.931,55.7292 -18.91,85.0733 0.447,6.493 3.209,16.826 0.712,23 -5.055,12.501 -20.903,24.591 -28.777,36 C 98.7592,202.366 86,235.122 86,271 Z"
           id="path4-0" />
        <path
           style="fill:#fbb83f;stroke:none"
           d="m 193,101.649 c -6.235,1.87 -19.6,9.232 -20.497,16.351 -1.112,8.831 17.815,25.063 26.326,23.172 4.082,-0.907 7.462,-7.326 10.21,-10.168 3.94,-4.073 9.378,-7.358 11.157,-13.005 C 224.959,102.88 204.592,98.1718 193,101.649 Z"
           id="path8" />
        <path
           style="fill:#f5f4f4;stroke:none;stroke-width:1.02551"
           d="m 269.83294,260.02717 c -13.43988,1.91177 -15.21314,12.51373 -17.16777,23.91937 -3.019,17.6209 -3.72063,36.09316 -0.87575,53.78103 0.7576,4.7104 1.62195,14.34329 6.04111,17.2221 3.80562,2.48002 12.85121,1.36279 17.18435,0.73772 24.22972,-3.49577 44.00815,-28.66834 52.38942,-49.41665 3.94553,-9.76684 6.70336,-21.99644 0.49747,-31.45581 -11.07588,-16.88319 -40.06055,-17.34895 -58.06883,-14.78776 z"
           id="path230-2" />
        <path
           style="fill:#f5f4f4;stroke:none;stroke-width:1.02325"
           d="m 87.808631,269.27613 c -24.8178,5.31612 -51.665768,36.60576 -33.149618,60.99797 16.972593,22.35868 53.039837,33.8513 80.115897,27.44612 20.14241,-4.76544 15.04146,-18.52336 8.98384,-33.59904 -7.96589,-19.82777 -29.55507,-60.49958 -55.950119,-54.84505 z"
           id="path274-2" />
      </g>
      <path
         style="fill:#9e9e9e;stroke:none"
         d="m 192,101 1,1 z"
         id="path6-5" />
    </g>
  </g>
</svg>
